<svg id="Layer_1" data-name="Layer 1" xmlns="http://www.w3.org/2000/svg" viewBox="0 0 400 100"><defs><style>.cls-1{fill:#06c;}.cls-2{fill:#0cf;}.cls-3{fill:#3cc;}.cls-4{fill:#9c0;}.cls-5{fill:#666;}</style></defs><path class="cls-1" d="M2,48.03279H15.49047a.58769.58769,0,0,1,.58183.68125,7.86886,7.86886,0,1,0,15.52683-.00423.58685.58685,0,0,1,.583-.677H47.44262a.59017.59017,0,0,0,.59017-.59017V35.95974a.588.588,0,0,0-.4664-.57582,11.801,11.801,0,0,1,0-23.09571.588.588,0,0,0,.4664-.57582V2H2Z"/><path class="cls-2" d="M51.286,16.0723a7.86886,7.86886,0,1,0,.00423,15.52683.58685.58685,0,0,1,.677.583V47.44262a.59017.59017,0,0,0,.59017.59017H64.04026a.588.588,0,0,0,.57582-.4664,11.801,11.801,0,0,1,23.09571,0,.588.588,0,0,0,.57582.4664H98V2H51.96721V15.49047A.58769.58769,0,0,1,51.286,16.0723Z"/><path class="cls-3" d="M98,51.96721H84.50953a.58769.58769,0,0,1-.58183-.68125,7.86886,7.86886,0,1,0-15.52683.00423.58685.58685,0,0,1-.583.677H52.55738a.59017.59017,0,0,0-.59017.59017V64.04026a.588.588,0,0,0,.4664.57582,11.801,11.801,0,0,1,0,23.09571.588.588,0,0,0-.4664.57582V98H98Z"/><path class="cls-4" d="M48.714,83.9277a7.86886,7.86886,0,1,0-.00423-15.52683.58685.58685,0,0,1-.677-.583V52.55738a.59017.59017,0,0,0-.59017-.59017H35.95974a.588.588,0,0,0-.57582.4664,11.801,11.801,0,0,1-23.0957,0,.588.588,0,0,0-.57583-.4664H2V98H48.03279V84.50953A.58769.58769,0,0,1,48.714,83.9277Z"/><polygon class="cls-5" points="176.384 45.57 138.584 45.57 138.584 14 130 14 130 84.892 138.584 84.892 138.584 53.185 176.384 53.185 176.384 84.892 184.969 84.892 184.969 14 176.384 14 176.384 45.57"/><rect class="cls-5" x="201.02924" y="14" width="8.16968" height="70.8924"/><path class="cls-5" d="M258.36865,34.45789a23.30351,23.30351,0,0,0-33.68017,9.62286,32.67418,32.67418,0,0,0-3.02832,14.50391,32.28151,32.28151,0,0,0,3.02832,14.40026,23.334,23.334,0,0,0,42.12652,0,32.28151,32.28151,0,0,0,3.02826-14.40026A32.67418,32.67418,0,0,0,266.815,44.08075,23.07734,23.07734,0,0,0,258.36865,34.45789ZM259.979,68.48462a16.52643,16.52643,0,0,1-5.22766,7.37292,15.84353,15.84353,0,0,1-17.99926,0,16.524,16.524,0,0,1-5.22663-7.37292,28.21168,28.21168,0,0,1-1.69659-9.9,28.50478,28.50478,0,0,1,1.69659-9.9347,16.74641,16.74641,0,0,1,5.22663-7.44232,15.68645,15.68645,0,0,1,17.99926,0A16.7488,16.7488,0,0,1,259.979,48.65a28.5283,28.5283,0,0,1,1.69562,9.9347A28.2349,28.2349,0,0,1,259.979,68.48462Z"/><path class="cls-5" d="M316.52313,34.45789A23.30358,23.30358,0,0,0,282.843,44.08075a32.67418,32.67418,0,0,0-3.02832,14.50391A32.28151,32.28151,0,0,0,282.843,72.98492a23.334,23.334,0,0,0,42.12652,0,32.28151,32.28151,0,0,0,3.02826-14.40026,32.67418,32.67418,0,0,0-3.02826-14.50391A23.07652,23.07652,0,0,0,316.52313,34.45789Zm1.61035,34.02673a16.526,16.526,0,0,1-5.22766,7.37292,15.84353,15.84353,0,0,1-17.99926,0,16.52586,16.52586,0,0,1-5.2276-7.37292,28.23354,28.23354,0,0,1-1.69562-9.9A28.52692,28.52692,0,0,1,289.679,48.65a16.74822,16.74822,0,0,1,5.2276-7.44232,15.68645,15.68645,0,0,1,17.99926,0A16.74833,16.74833,0,0,1,318.13348,48.65a28.52692,28.52692,0,0,1,1.69562,9.9347A28.23354,28.23354,0,0,1,318.13348,68.48462Z"/><polygon class="cls-5" points="373.137 31.723 358.459 74.093 357.906 74.093 343.229 31.723 334.368 31.723 354.029 84.892 362.336 84.892 381.997 31.723 373.137 31.723"/></svg>